<svg xmlns="http://www.w3.org/2000/svg" viewBox="0 0 512 512">
  <defs>
    <linearGradient id="sky" x1="0" y1="0" x2="0" y2="1">
      <stop offset="0%" stop-color="#1f6fd0"/>
      <stop offset="55%" stop-color="#4a9ae4"/>
      <stop offset="100%" stop-color="#8fc6f2"/>
    </linearGradient>
    <linearGradient id="sun" x1="0" y1="0" x2="0" y2="1">
      <stop offset="0%" stop-color="#ffe487"/>
      <stop offset="100%" stop-color="#ffb02e"/>
    </linearGradient>
    <linearGradient id="cld" x1="0" y1="0" x2="0" y2="1">
      <stop offset="0%" stop-color="#ffffff"/>
      <stop offset="100%" stop-color="#dbe6f5"/>
    </linearGradient>
    <filter id="sh" x="-30%" y="-30%" width="160%" height="160%">
      <feDropShadow dx="0" dy="10" stdDeviation="14" flood-color="#0b2a4a" flood-opacity=".28"/>
    </filter>
  </defs>
  <rect width="512" height="512" fill="url(#sky)"/>
  <g filter="url(#sh)">
    <circle cx="196" cy="182" r="66" fill="url(#sun)"/>
    <g fill="#ffd257">
      <rect x="186" y="72" width="20" height="42" rx="10"/>
      <rect x="186" y="250" width="20" height="42" rx="10"/>
      <rect x="76" y="172" width="42" height="20" rx="10"/>
      <rect x="274" y="172" width="42" height="20" rx="10"/>
      <rect x="186" y="72" width="20" height="42" rx="10" transform="rotate(45 196 182)"/>
      <rect x="186" y="250" width="20" height="42" rx="10" transform="rotate(45 196 182)"/>
      <rect x="76" y="172" width="42" height="20" rx="10" transform="rotate(45 196 182)"/>
      <rect x="274" y="172" width="42" height="20" rx="10" transform="rotate(45 196 182)"/>
    </g>
    <path d="M172 404a74 74 0 0 1-7-147 106 106 0 0 1 202-23 67 67 0 0 1 17 170z" fill="url(#cld)"/>
  </g>
</svg>
